<?xml version="1.0" encoding="UTF-8" standalone="no"?>
<!-- Created with Inkscape (http://www.inkscape.org/) -->

<svg
   xmlns:dc="http://purl.org/dc/elements/1.1/"
   xmlns:cc="http://creativecommons.org/ns#"
   xmlns:rdf="http://www.w3.org/1999/02/22-rdf-syntax-ns#"
   xmlns:svg="http://www.w3.org/2000/svg"
   xmlns="http://www.w3.org/2000/svg"
   xmlns:sodipodi="http://sodipodi.sourceforge.net/DTD/sodipodi-0.dtd"
   xmlns:inkscape="http://www.inkscape.org/namespaces/inkscape"
   width="90"
   height="181.31978"
   id="svg3754"
   version="1.1"
   inkscape:version="0.48.1 "
   sodipodi:docname="New document 2">
  <defs
     id="defs3756" />
  <sodipodi:namedview
     id="base"
     pagecolor="#ffffff"
     bordercolor="#666666"
     borderopacity="1.0"
     inkscape:pageopacity="0.0"
     inkscape:pageshadow="2"
     inkscape:zoom="0.98994949"
     inkscape:cx="76.149391"
     inkscape:cy="88.853205"
     inkscape:document-units="px"
     inkscape:current-layer="layer1"
     showgrid="false"
     fit-margin-top="0"
     fit-margin-left="0"
     fit-margin-right="0"
     fit-margin-bottom="0"
     inkscape:window-width="838"
     inkscape:window-height="764"
     inkscape:window-x="727"
     inkscape:window-y="61"
     inkscape:window-maximized="0" />
  <metadata
     id="metadata3759">
    <rdf:RDF>
      <cc:Work
         rdf:about="">
        <dc:format>image/svg+xml</dc:format>
        <dc:type
           rdf:resource="http://purl.org/dc/dcmitype/StillImage" />
        <dc:title></dc:title>
      </cc:Work>
    </rdf:RDF>
  </metadata>
  <g
     inkscape:label="Layer 1"
     inkscape:groupmode="layer"
     id="layer1"
     transform="translate(-359.85714,-409.79075)">
    <path
       style="fill:#f0b600;fill-opacity:0.27058825"
       d="m 368.85714,590.01824 0,-1.09229 3,0 3,0 0,1.09229 0,1.09229 -3,0 -3,0 0,-1.09229 z m 15,0 0,-1.09229 3,0 3,0 0,1.09229 0,1.09229 -3,0 -3,0 0,-1.09229 z m 30,0 0,-1.09229 3,0 3,0 0,1.09229 0,1.09229 -3,0 -3,0 0,-1.09229 z m 15,0 0,-1.09229 3,0 3,0 0,1.09229 0,1.09229 -3,0 -3,0 0,-1.09229 z m 15,0 0,-1.09229 3,0 3,0 0,1.09229 0,1.09229 -3,0 -3,0 0,-1.09229 z m -75,-4.36915 0,-1.09229 3,0 3,0 0,1.09229 0,1.09229 -3,0 -3,0 0,-1.09229 z m 15,0 0,-1.09229 3,0 3,0 0,1.09229 0,1.09229 -3,0 -3,0 0,-1.09229 z m 30,0 0,-1.09229 3,0 3,0 0,1.09229 0,1.09229 -3,0 -3,0 0,-1.09229 z m 30,0 0,-1.09229 3,0 3,0 0,1.09229 0,1.09229 -3,0 -3,0 0,-1.09229 z m -75,-4.36915 0,-1.09229 3,0 3,0 0,1.09229 0,1.09229 -3,0 -3,0 0,-1.09229 z m 30,0 0,-1.09229 3,0 3,0 0,1.09229 0,1.09229 -3,0 -3,0 0,-1.09229 z m -30,-4.36915 0,-1.09229 3,0 3,0 0,1.09229 0,1.09228 -3,0 -3,0 0,-1.09228 z m 60,0 0,-1.09229 3,0 3,0 0,1.09229 0,1.09228 -3,0 -3,0 0,-1.09228 z m 15,0 0,-1.09229 3,0 3,0 0,1.09229 0,1.09228 -3,0 -3,0 0,-1.09228 z m -75,-4.36915 0,-1.09229 3,0 3,0 0,1.09229 0,1.09228 -3,0 -3,0 0,-1.09228 z m 15,0 0,-1.09229 3,0 3,0 0,1.09229 0,1.09228 -3,0 -3,0 0,-1.09228 z m 0,-4.36915 0,-1.09229 3,0 3,0 0,1.09229 0,1.09228 -3,0 -3,0 0,-1.09228 z m 15,0 0,-1.09229 3,0 3,0 0,1.09229 0,1.09228 -3,0 -3,0 0,-1.09228 z m 15,0 0,-1.09229 3,0 3,0 0,1.09229 0,1.09228 -3,0 -3,0 0,-1.09228 z m 15,0 0,-1.09229 3,0 3,0 0,1.09229 0,1.09228 -3,0 -3,0 0,-1.09228 z m 15,0 0,-1.09229 3,0 3,0 0,1.09229 0,1.09228 -3,0 -3,0 0,-1.09228 z m -60,-4.36915 0,-1.0923 3,0 3,0 0,1.0923 0,1.09228 -3,0 -3,0 0,-1.09228 z m 15,0 0,-1.0923 3,0 3,0 0,1.0923 0,1.09228 -3,0 -3,0 0,-1.09228 z m 15,0 0,-1.0923 3,0 3,0 0,1.0923 0,1.09228 -3,0 -3,0 0,-1.09228 z m 15,0 0,-1.0923 3,0 3,0 0,1.0923 0,1.09228 -3,0 -3,0 0,-1.09228 z m 15,0 0,-1.0923 3,0 3,0 0,1.0923 0,1.09228 -3,0 -3,0 0,-1.09228 z m -60,-4.36916 0,-1.09229 3,0 3,0 0,1.09229 0,1.09229 -3,0 -3,0 0,-1.09229 z m 15,0 0,-1.09229 3,0 3,0 0,1.09229 0,1.09229 -3,0 -3,0 0,-1.09229 z m 15,0 0,-1.09229 3,0 3,0 0,1.09229 0,1.09229 -3,0 -3,0 0,-1.09229 z m 15,0 0,-1.09229 3,0 3,0 0,1.09229 0,1.09229 -3,0 -3,0 0,-1.09229 z m 15,0 0,-1.09229 3,0 3,0 0,1.09229 0,1.09229 -3,0 -3,0 0,-1.09229 z m -75,-4.36915 0,-1.09229 3,0 3,0 0,1.09229 0,1.09229 -3,0 -3,0 0,-1.09229 z m 30,-4.36915 0,-1.09229 3,0 3,0 0,1.09229 0,1.09228 -3,0 -3,0 0,-1.09228 z m 15,0 0,-1.09229 3,0 3,0 0,1.09229 0,1.09228 -3,0 -3,0 0,-1.09228 z m -15,-4.36915 0,-1.09229 3,0 3,0 0,1.09229 0,1.09228 -3,0 -3,0 0,-1.09228 z m 0,-4.36915 0,-1.09229 3,0 3,0 0,1.09229 0,1.09228 -3,0 -3,0 0,-1.09228 z m -30,-4.36915 0,-1.09229 3,0 3,0 0,1.09229 0,1.09228 -3,0 -3,0 0,-1.09228 z m 30,0 0,-1.09229 3,0 3,0 0,1.09229 0,1.09228 -3,0 -3,0 0,-1.09228 z m 0,-4.36916 0,-1.09228 3,0 3,0 0,1.09228 0,1.0923 -3,0 -3,0 0,-1.0923 z m 0,-4.36915 0,-1.09228 3,0 3,0 0,1.09228 0,1.09229 -3,0 -3,0 0,-1.09229 z m 30,0 0,-1.09228 3,0 3,0 0,1.09228 0,1.09229 -3,0 -3,0 0,-1.09229 z m -60,-4.36915 0,-1.09228 3,0 3,0 0,1.09228 0,1.09229 -3,0 -3,0 0,-1.09229 z m 15,0 0,-1.09228 3,0 3,0 0,1.09228 0,1.09229 -3,0 -3,0 0,-1.09229 z m 30,0 0,-1.09228 3,0 3,0 0,1.09228 0,1.09229 -3,0 -3,0 0,-1.09229 z m 15,0 0,-1.09228 3,0 3,0 0,1.09228 0,1.09229 -3,0 -3,0 0,-1.09229 z m 15,0 0,-1.09228 3,0 3,0 0,1.09228 0,1.09229 -3,0 -3,0 0,-1.09229 z m -75,-4.36915 0,-1.09228 3,0 3,0 0,1.09228 0,1.09229 -3,0 -3,0 0,-1.09229 z m 15,0 0,-1.09228 3,0 3,0 0,1.09228 0,1.09229 -3,0 -3,0 0,-1.09229 z m 15,0 0,-1.09228 3,0 3,0 0,1.09228 0,1.09229 -3,0 -3,0 0,-1.09229 z m 15,0 0,-1.09228 3,0 3,0 0,1.09228 0,1.09229 -3,0 -3,0 0,-1.09229 z m 15,0 0,-1.09228 3,0 3,0 0,1.09228 0,1.09229 -3,0 -3,0 0,-1.09229 z m 15,0 0,-1.09228 3,0 3,0 0,1.09228 0,1.09229 -3,0 -3,0 0,-1.09229 z m -75,-4.36915 0,-1.09229 3,0 3,0 0,1.09229 0,1.09229 -3,0 -3,0 0,-1.09229 z m 15,0 0,-1.09229 3,0 3,0 0,1.09229 0,1.09229 -3,0 -3,0 0,-1.09229 z m 15,0 0,-1.09229 3,0 3,0 0,1.09229 0,1.09229 -3,0 -3,0 0,-1.09229 z m 15,0 0,-1.09229 3,0 3,0 0,1.09229 0,1.09229 -3,0 -3,0 0,-1.09229 z m 30,0 0,-1.09229 3,0 3,0 0,1.09229 0,1.09229 -3,0 -3,0 0,-1.09229 z m -75,-4.36916 0,-1.09228 3,0 3,0 0,1.09228 0,1.0923 -3,0 -3,0 0,-1.0923 z m 15,0 0,-1.09228 3,0 3,0 0,1.09228 0,1.0923 -3,0 -3,0 0,-1.0923 z m 45,0 0,-1.09228 3,0 3,0 0,1.09228 0,1.0923 -3,0 -3,0 0,-1.0923 z m -45,-4.36915 0,-1.09228 3,0 3,0 0,1.09228 0,1.0923 -3,0 -3,0 0,-1.0923 z m 30,0 0,-1.09228 3,0 3,0 0,1.09228 0,1.0923 -3,0 -3,0 0,-1.0923 z m 15,0 0,-1.09228 3,0 3,0 0,1.09228 0,1.0923 -3,0 -3,0 0,-1.0923 z m 15,0 0,-1.09228 3,0 3,0 0,1.09228 0,1.0923 -3,0 -3,0 0,-1.0923 z m -75,-4.36915 0,-1.09228 3,0 3,0 0,1.09228 0,1.09229 -3,0 -3,0 0,-1.09229 z m 30,0 0,-1.09228 3,0 3,0 0,1.09228 0,1.09229 -3,0 -3,0 0,-1.09229 z m 15,0 0,-1.09228 3,0 3,0 0,1.09228 0,1.09229 -3,0 -3,0 0,-1.09229 z m -30,-4.36915 0,-1.09228 3,0 3,0 0,1.09228 0,1.09229 -3,0 -3,0 0,-1.09229 z m 45,0 0,-1.09228 3,0 3,0 0,1.09228 0,1.09229 -3,0 -3,0 0,-1.09229 z m 15,0 0,-1.09228 3,0 3,0 0,1.09228 0,1.09229 -3,0 -3,0 0,-1.09229 z m -75,-4.36914 0,-1.0923 3,0 3,0 0,1.0923 0,1.09228 -3,0 -3,0 0,-1.09228 z m 15,0 0,-1.0923 3,0 3,0 0,1.0923 0,1.09228 -3,0 -3,0 0,-1.09228 z m 15,0 0,-1.0923 3,0 3,0 0,1.0923 0,1.09228 -3,0 -3,0 0,-1.09228 z m 15,0 0,-1.0923 3,0 3,0 0,1.0923 0,1.09228 -3,0 -3,0 0,-1.09228 z m 15,0 0,-1.0923 3,0 3,0 0,1.0923 0,1.09228 -3,0 -3,0 0,-1.09228 z m 15,0 0,-1.0923 3,0 3,0 0,1.0923 0,1.09228 -3,0 -3,0 0,-1.09228 z m 0,-4.36915 0,-1.0923 3,0 3,0 0,1.0923 0,1.09228 -3,0 -3,0 0,-1.09228 z m -45,-4.36916 0,-1.09229 3,0 3,0 0,1.09229 0,1.09229 -3,0 -3,0 0,-1.09229 z m 15,0 0,-1.09229 3,0 3,0 0,1.09229 0,1.09229 -3,0 -3,0 0,-1.09229 z m 15,0 0,-1.09229 3,0 3,0 0,1.09229 0,1.09229 -3,0 -3,0 0,-1.09229 z m -60,-4.36915 0,-1.09229 3,0 3,0 0,1.09229 0,1.09228 -3,0 -3,0 0,-1.09228 z m 15,0 0,-1.09229 3,0 3,0 0,1.09229 0,1.09228 -3,0 -3,0 0,-1.09228 z m 15,0 0,-1.09229 3,0 3,0 0,1.09229 0,1.09228 -3,0 -3,0 0,-1.09228 z m 15,0 0,-1.09229 3,0 3,0 0,1.09229 0,1.09228 -3,0 -3,0 0,-1.09228 z m 15,0 0,-1.09229 3,0 3,0 0,1.09229 0,1.09228 -3,0 -3,0 0,-1.09228 z m 15,0 0,-1.09229 3,0 3,0 0,1.09229 0,1.09228 -3,0 -3,0 0,-1.09228 z m -60,-4.36915 0,-1.09229 3,0 3,0 0,1.09229 0,1.09228 -3,0 -3,0 0,-1.09228 z m 15,0 0,-1.09229 3,0 3,0 0,1.09229 0,1.09228 -3,0 -3,0 0,-1.09228 z m 15,0 0,-1.09229 3,0 3,0 0,1.09229 0,1.09228 -3,0 -3,0 0,-1.09228 z m 15,0 0,-1.09229 3,0 3,0 0,1.09229 0,1.09228 -3,0 -3,0 0,-1.09228 z m 15,0 0,-1.09229 3,0 3,0 0,1.09229 0,1.09228 -3,0 -3,0 0,-1.09228 z m -45,-4.36915 0,-1.09229 3,0 3,0 0,1.09229 0,1.09228 -3,0 -3,0 0,-1.09228 z m 15,0 0,-1.09229 3,0 3,0 0,1.09229 0,1.09228 -3,0 -3,0 0,-1.09228 z m -30,-4.36915 0,-1.0923 3,0 3,0 0,1.0923 0,1.09228 -3,0 -3,0 0,-1.09228 z m 15,-4.36916 0,-1.09229 3,0 3,0 0,1.09229 0,1.09229 -3,0 -3,0 0,-1.09229 z m 15,0 0,-1.09229 3,0 3,0 0,1.09229 0,1.09229 -3,0 -3,0 0,-1.09229 z m 15,0 0,-1.09229 3,0 3,0 0,1.09229 0,1.09229 -3,0 -3,0 0,-1.09229 z m -60,-4.36915 0,-1.09229 3,0 3,0 0,1.09229 0,1.09229 -3,0 -3,0 0,-1.09229 z m 30,0 0,-1.09229 3,0 3,0 0,1.09229 0,1.09229 -3,0 -3,0 0,-1.09229 z m 15,0 0,-1.09229 3,0 3,0 0,1.09229 0,1.09229 -3,0 -3,0 0,-1.09229 z m 15,0 0,-1.09229 3,0 3,0 0,1.09229 0,1.09229 -3,0 -3,0 0,-1.09229 z m -60,-4.36915 0,-1.09229 3,0 3,0 0,1.09229 0,1.09229 -3,0 -3,0 0,-1.09229 z m 75,0 0,-1.09229 3,0 3,0 0,1.09229 0,1.09229 -3,0 -3,0 0,-1.09229 z m -60,-4.36915 0,-1.09228 3,0 3,0 0,1.09228 0,1.09229 -3,0 -3,0 0,-1.09229 z m 30,0 0,-1.09228 3,0 3,0 0,1.09228 0,1.09229 -3,0 -3,0 0,-1.09229 z m 15,0 0,-1.09228 3,0 3,0 0,1.09228 0,1.09229 -3,0 -3,0 0,-1.09229 z m 15,0 0,-1.09228 3,0 3,0 0,1.09228 0,1.09229 -3,0 -3,0 0,-1.09229 z m -75,-4.36915 0,-1.09229 3,0 3,0 0,1.09229 0,1.09229 -3,0 -3,0 0,-1.09229 z m 15,0 0,-1.09229 3,0 3,0 0,1.09229 0,1.09229 -3,0 -3,0 0,-1.09229 z m 15,0 0,-1.09229 3,0 3,0 0,1.09229 0,1.09229 -3,0 -3,0 0,-1.09229 z m 15,0 0,-1.09229 3,0 3,0 0,1.09229 0,1.09229 -3,0 -3,0 0,-1.09229 z m 15,0 0,-1.09229 3,0 3,0 0,1.09229 0,1.09229 -3,0 -3,0 0,-1.09229 z m 15,0 0,-1.09229 3,0 3,0 0,1.09229 0,1.09229 -3,0 -3,0 0,-1.09229 z m -75,-4.36915 0,-1.09229 3,0 3,0 0,1.09229 0,1.09229 -3,0 -3,0 0,-1.09229 z m 75,0 0,-1.09229 3,0 3,0 0,1.09229 0,1.09229 -3,0 -3,0 0,-1.09229 z m -60,-4.36916 0,-1.09228 3,0 3,0 0,1.09228 0,1.0923 -3,0 -3,0 0,-1.0923 z m -15,-4.36915 0,-1.09228 3,0 3,0 0,1.09228 0,1.09229 -3,0 -3,0 0,-1.09229 z m 15,0 0,-1.09228 3,0 3,0 0,1.09228 0,1.09229 -3,0 -3,0 0,-1.09229 z m 60,0 0,-1.09228 3,0 3,0 0,1.09228 0,1.09229 -3,0 -3,0 0,-1.09229 z m -84,-4.36915 0,-1.09228 1.5,0 1.5,0 0,1.09228 0,1.09229 -1.5,0 -1.5,0 0,-1.09229 z m 9,0 0,-1.09228 3,0 3,0 0,1.09228 0,1.09229 -3,0 -3,0 0,-1.09229 z m 15,0 0,-1.09228 3,0 3,0 0,1.09228 0,1.09229 -3,0 -3,0 0,-1.09229 z m 15,0 0,-1.09228 3,0 3,0 0,1.09228 0,1.09229 -3,0 -3,0 0,-1.09229 z m 15,0 0,-1.09228 3,0 3,0 0,1.09228 0,1.09229 -3,0 -3,0 0,-1.09229 z m 15,0 0,-1.09228 3,0 3,0 0,1.09228 0,1.09229 -3,0 -3,0 0,-1.09229 z m 15,0 0,-1.09228 3,0 3,0 0,1.09228 0,1.09229 -3,0 -3,0 0,-1.09229 z m -75,-4.36915 0,-1.09228 3,0 3,0 0,1.09228 0,1.09229 -3,0 -3,0 0,-1.09229 z m 15,0 0,-1.09228 3,0 3,0 0,1.09228 0,1.09229 -3,0 -3,0 0,-1.09229 z m 30,0 0,-1.09228 3,0 3,0 0,1.09228 0,1.09229 -3,0 -3,0 0,-1.09229 z m 15,0 0,-1.09228 3,0 3,0 0,1.09228 0,1.09229 -3,0 -3,0 0,-1.09229 z m 15,0 0,-1.09228 3,0 3,0 0,1.09228 0,1.09229 -3,0 -3,0 0,-1.09229 z m -75,-4.36915 0,-1.09229 3,0 3,0 0,1.09229 0,1.09229 -3,0 -3,0 0,-1.09229 z m 30,0 0,-1.09229 3,0 3,0 0,1.09229 0,1.09229 -3,0 -3,0 0,-1.09229 z m -30,-4.36916 0,-1.09228 3,0 3,0 0,1.09228 0,1.0923 -3,0 -3,0 0,-1.0923 z m 30,0 0,-1.09228 3,0 3,0 0,1.09228 0,1.0923 -3,0 -3,0 0,-1.0923 z m 15,0 0,-1.09228 3,0 3,0 0,1.09228 0,1.0923 -3,0 -3,0 0,-1.0923 z m -54,-4.36914 0,-1.09229 1.5,0 1.5,0 0,1.09229 0,1.09229 -1.5,0 -1.5,0 0,-1.09229 z"
       id="path3773"
       inkscape:connector-curvature="0" />
  </g>
</svg>
